<svg width="24" height="22" viewBox="0 0 24 22" fill="none" xmlns="http://www.w3.org/2000/svg">
<path d="M20.75 15.1725C20.75 15.9892 20.5692 16.765 20.2075 17.5C19.8575 18.2 19.3675 18.798 18.7375 19.2938C18.1075 19.7896 17.4017 20.125 16.62 20.3L16.06 18.62C16.585 18.5384 17.0633 18.3459 17.495 18.0425C17.9267 17.7392 18.2708 17.36 18.5275 16.905H16.375C16.06 16.905 15.7683 16.8292 15.5 16.6775C15.2317 16.5259 15.0188 16.3159 14.8612 16.0475C14.7037 15.7792 14.625 15.4817 14.625 15.155V11.655C14.625 11.34 14.7037 11.0484 14.8612 10.78C15.0188 10.5117 15.2317 10.2988 15.5 10.1413C15.7683 9.9838 16.06 9.90505 16.375 9.90505H18.9475C18.8075 8.77338 18.4108 7.74088 17.7575 6.80755C17.1042 5.87422 16.2817 5.13922 15.29 4.60255C14.2633 4.05421 13.1667 3.78005 12 3.78005C10.8333 3.78005 9.73667 4.05421 8.71 4.60255C7.71833 5.13922 6.89583 5.87422 6.2425 6.80755C5.58917 7.74088 5.1925 8.77338 5.0525 9.90505H7.625C7.94 9.90505 8.23167 9.9838 8.5 10.1413C8.76833 10.2988 8.98125 10.5117 9.13875 10.78C9.29625 11.0484 9.375 11.34 9.375 11.655V15.155C9.375 15.4817 9.29625 15.7792 9.13875 16.0475C8.98125 16.3159 8.76833 16.5259 8.5 16.6775C8.23167 16.8292 7.94 16.905 7.625 16.905H5C4.685 16.905 4.39333 16.8292 4.125 16.6775C3.85667 16.5259 3.64375 16.3159 3.48625 16.0475C3.32875 15.7792 3.25 15.4817 3.25 15.155V10.78C3.25 9.60172 3.4775 8.47005 3.9325 7.38505C4.37583 6.33505 5.00292 5.40755 5.81375 4.60255C6.62458 3.79755 7.54917 3.17338 8.5875 2.73005C9.6725 2.26338 10.81 2.03005 12 2.03005C13.19 2.03005 14.3275 2.26338 15.4125 2.73005C16.4508 3.17338 17.3754 3.79755 18.1862 4.60255C18.9971 5.40755 19.6242 6.33505 20.0675 7.38505C20.5225 8.47005 20.75 9.60172 20.75 10.78V15.1725ZM19 15.155V11.655H16.375V15.155H19ZM5 11.655V15.155H7.625V11.655H5Z" fill="#1B365D"/>
</svg>
